<mxfile host="drawio-plugin" modified="2023-12-08T19:09:38.234Z" agent="5.0 (Windows NT 10.0; Win64; x64) AppleWebKit/537.36 (KHTML, like Gecko) Chrome/111.0.0.0 Safari/537.36" etag="sNq0kC3b4a4dF-RZTq9t" version="20.5.3" type="embed" pages="2"><diagram id="R2lEEEUBdFMjLlhIrx00" name="Logisch"><mxGraphModel dx="4022" dy="367" grid="1" gridSize="10" guides="1" tooltips="1" connect="1" arrows="1" fold="1" page="1" pageScale="1" pageWidth="3300" pageHeight="4681" math="0" shadow="0" extFonts="Permanent Marker^https://fonts.googleapis.com/css?family=Permanent+Marker"><root><mxCell id="0"/><mxCell id="1" parent="0"/><mxCell id="oCtHquc3aqy1SS7fhUfA-3" value="advertisment" style="shape=table;startSize=30;container=1;collapsible=1;childLayout=tableLayout;fixedRows=1;rowLines=0;fontStyle=1;align=center;resizeLast=1;" parent="1" vertex="1"><mxGeometry x="-2760" y="80" width="250" height="200" as="geometry"/></mxCell><mxCell id="oCtHquc3aqy1SS7fhUfA-4" value="" style="shape=partialRectangle;collapsible=0;dropTarget=0;pointerEvents=0;fillColor=none;points=[[0,0.5],[1,0.5]];portConstraint=eastwest;top=0;left=0;right=0;bottom=1;" parent="oCtHquc3aqy1SS7fhUfA-3" vertex="1"><mxGeometry y="30" width="250" height="30" as="geometry"/></mxCell><mxCell id="oCtHquc3aqy1SS7fhUfA-5" value="PK" style="shape=partialRectangle;overflow=hidden;connectable=0;fillColor=none;top=0;left=0;bottom=0;right=0;fontStyle=1;" parent="oCtHquc3aqy1SS7fhUfA-4" vertex="1"><mxGeometry width="30" height="30" as="geometry"><mxRectangle width="30" height="30" as="alternateBounds"/></mxGeometry></mxCell><mxCell id="oCtHquc3aqy1SS7fhUfA-6" value="id: UUID" style="shape=partialRectangle;overflow=hidden;connectable=0;fillColor=none;top=0;left=0;bottom=0;right=0;align=left;spacingLeft=6;fontStyle=5;" parent="oCtHquc3aqy1SS7fhUfA-4" vertex="1"><mxGeometry x="30" width="220" height="30" as="geometry"><mxRectangle width="220" height="30" as="alternateBounds"/></mxGeometry></mxCell><mxCell id="oCtHquc3aqy1SS7fhUfA-7" value="" style="shape=partialRectangle;collapsible=0;dropTarget=0;pointerEvents=0;fillColor=none;points=[[0,0.5],[1,0.5]];portConstraint=eastwest;top=0;left=0;right=0;bottom=0;" parent="oCtHquc3aqy1SS7fhUfA-3" vertex="1"><mxGeometry y="60" width="250" height="140" as="geometry"/></mxCell><mxCell id="oCtHquc3aqy1SS7fhUfA-8" value="FK&#10;&#10;&#10;&#10;&#10;FK&#10;&#10;" style="shape=partialRectangle;overflow=hidden;connectable=0;fillColor=none;top=0;left=0;bottom=0;right=0;" parent="oCtHquc3aqy1SS7fhUfA-7" vertex="1"><mxGeometry width="30" height="140" as="geometry"><mxRectangle width="30" height="140" as="alternateBounds"/></mxGeometry></mxCell><mxCell id="oCtHquc3aqy1SS7fhUfA-9" value="company_id UUID FOREIGN KEY&#10;title VARCHAR NOT NULL&#10;description VARCHAR&#10;deadline TIMESTAMP&#10;job_type VARCHAR NOT NULL&#10;location_id UUID NOT NULL&#10;remote BOOL NOT NULL&#10;" style="shape=partialRectangle;overflow=hidden;connectable=0;fillColor=none;top=0;left=0;bottom=0;right=0;align=left;spacingLeft=6;" parent="oCtHquc3aqy1SS7fhUfA-7" vertex="1"><mxGeometry x="30" width="220" height="140" as="geometry"><mxRectangle width="220" height="140" as="alternateBounds"/></mxGeometry></mxCell><mxCell id="6" value="student" style="shape=table;startSize=30;container=1;collapsible=1;childLayout=tableLayout;fixedRows=1;rowLines=0;fontStyle=1;align=center;resizeLast=1;" parent="1" vertex="1"><mxGeometry x="-2770" y="500" width="330" height="240" as="geometry"/></mxCell><mxCell id="7" value="" style="shape=partialRectangle;collapsible=0;dropTarget=0;pointerEvents=0;fillColor=none;points=[[0,0.5],[1,0.5]];portConstraint=eastwest;top=0;left=0;right=0;bottom=1;" parent="6" vertex="1"><mxGeometry y="30" width="330" height="30" as="geometry"/></mxCell><mxCell id="8" value="PK" style="shape=partialRectangle;overflow=hidden;connectable=0;fillColor=none;top=0;left=0;bottom=0;right=0;fontStyle=1;" parent="7" vertex="1"><mxGeometry width="30" height="30" as="geometry"><mxRectangle width="30" height="30" as="alternateBounds"/></mxGeometry></mxCell><mxCell id="9" value="id: UUID" style="shape=partialRectangle;overflow=hidden;connectable=0;fillColor=none;top=0;left=0;bottom=0;right=0;align=left;spacingLeft=6;fontStyle=5;" parent="7" vertex="1"><mxGeometry x="30" width="300" height="30" as="geometry"><mxRectangle width="300" height="30" as="alternateBounds"/></mxGeometry></mxCell><mxCell id="10" value="" style="shape=partialRectangle;collapsible=0;dropTarget=0;pointerEvents=0;fillColor=none;points=[[0,0.5],[1,0.5]];portConstraint=eastwest;top=0;left=0;right=0;bottom=0;" parent="6" vertex="1"><mxGeometry y="60" width="330" height="180" as="geometry"/></mxCell><mxCell id="11" value="FK&#10;&#10;&#10;&#10;&#10;&#10;&#10;&#10;&#10;FK" style="shape=partialRectangle;overflow=hidden;connectable=0;fillColor=none;top=0;left=0;bottom=0;right=0;" parent="10" vertex="1"><mxGeometry width="30" height="180" as="geometry"><mxRectangle width="30" height="180" as="alternateBounds"/></mxGeometry></mxCell><mxCell id="12" value="user_id UUID FOREIGN KEY&#10;date_of_birth TIMESTAMP NOT NULL&#10;first_name VARCHAR NOT NULL&#10;last_name VARCHAR NOT NULL&#10;phone VARCHAR&#10;major_study VARCHAR&#10;list_of_skills VARCHAR&#10;degree VARCHAR&#10;description VARCHAR&#10;status VARCHAR&#10;location_id UUID NOT NULL FOREIGN KEY" style="shape=partialRectangle;overflow=hidden;connectable=0;fillColor=none;top=0;left=0;bottom=0;right=0;align=left;spacingLeft=6;" parent="10" vertex="1"><mxGeometry x="30" width="300" height="180" as="geometry"><mxRectangle width="300" height="180" as="alternateBounds"/></mxGeometry></mxCell><mxCell id="36" style="edgeStyle=orthogonalEdgeStyle;rounded=0;orthogonalLoop=1;jettySize=auto;html=1;endArrow=none;endFill=0;" parent="1" source="28" target="y5CUCEXgKgvH5bJ2dIs5-42" edge="1"><mxGeometry relative="1" as="geometry"><Array as="points"><mxPoint x="-3120" y="1105"/><mxPoint x="-3120" y="860"/></Array></mxGeometry></mxCell><mxCell id="27" value="user_group" style="shape=table;startSize=30;container=1;collapsible=1;childLayout=tableLayout;fixedRows=1;rowLines=0;fontStyle=1;align=center;resizeLast=1;" parent="1" vertex="1"><mxGeometry x="-3050" y="1060" width="310" height="90" as="geometry"/></mxCell><mxCell id="28" value="" style="shape=partialRectangle;collapsible=0;dropTarget=0;pointerEvents=0;fillColor=none;points=[[0,0.5],[1,0.5]];portConstraint=eastwest;top=0;left=0;right=0;bottom=1;" parent="27" vertex="1"><mxGeometry y="30" width="310" height="30" as="geometry"/></mxCell><mxCell id="29" value="PK" style="shape=partialRectangle;overflow=hidden;connectable=0;fillColor=none;top=0;left=0;bottom=0;right=0;fontStyle=1;" parent="28" vertex="1"><mxGeometry width="30" height="30" as="geometry"><mxRectangle width="30" height="30" as="alternateBounds"/></mxGeometry></mxCell><mxCell id="30" value="user_id UUID FOREIGN KEY" style="shape=partialRectangle;overflow=hidden;connectable=0;fillColor=none;top=0;left=0;bottom=0;right=0;align=left;spacingLeft=6;fontStyle=5;" parent="28" vertex="1"><mxGeometry x="30" width="280" height="30" as="geometry"><mxRectangle width="280" height="30" as="alternateBounds"/></mxGeometry></mxCell><mxCell id="31" value="" style="shape=partialRectangle;collapsible=0;dropTarget=0;pointerEvents=0;fillColor=none;points=[[0,0.5],[1,0.5]];portConstraint=eastwest;top=0;left=0;right=0;bottom=0;" parent="27" vertex="1"><mxGeometry y="60" width="310" height="30" as="geometry"/></mxCell><mxCell id="32" value="PK" style="shape=partialRectangle;overflow=hidden;connectable=0;fillColor=none;top=0;left=0;bottom=0;right=0;fontStyle=1" parent="31" vertex="1"><mxGeometry width="30" height="30" as="geometry"><mxRectangle width="30" height="30" as="alternateBounds"/></mxGeometry></mxCell><mxCell id="33" value="goup_id VARCHAR NOT NULL FOREIIGN KEY" style="shape=partialRectangle;overflow=hidden;connectable=0;fillColor=none;top=0;left=0;bottom=0;right=0;align=left;spacingLeft=6;fontStyle=5" parent="31" vertex="1"><mxGeometry x="30" width="280" height="30" as="geometry"><mxRectangle width="280" height="30" as="alternateBounds"/></mxGeometry></mxCell><mxCell id="50" style="edgeStyle=orthogonalEdgeStyle;html=1;endArrow=none;endFill=0;exitX=0;exitY=0.5;exitDx=0;exitDy=0;entryX=-0.014;entryY=0.285;entryDx=0;entryDy=0;rounded=0;entryPerimeter=0;" parent="1" source="y5CUCEXgKgvH5bJ2dIs5-42" target="17" edge="1"><mxGeometry relative="1" as="geometry"><mxPoint x="-2987" y="820" as="sourcePoint"/><mxPoint x="-2987" y="750" as="targetPoint"/><Array as="points"><mxPoint x="-3050" y="850"/><mxPoint x="-3150" y="850"/><mxPoint x="-3150" y="677"/></Array></mxGeometry></mxCell><mxCell id="y5CUCEXgKgvH5bJ2dIs5-41" value="user" style="shape=table;startSize=30;container=1;collapsible=1;childLayout=tableLayout;fixedRows=1;rowLines=0;fontStyle=1;align=center;resizeLast=1;" parent="1" vertex="1"><mxGeometry x="-3050" y="810" width="310" height="190" as="geometry"/></mxCell><mxCell id="y5CUCEXgKgvH5bJ2dIs5-42" value="" style="shape=partialRectangle;collapsible=0;dropTarget=0;pointerEvents=0;fillColor=none;points=[[0,0.5],[1,0.5]];portConstraint=eastwest;top=0;left=0;right=0;bottom=1;" parent="y5CUCEXgKgvH5bJ2dIs5-41" vertex="1"><mxGeometry y="30" width="310" height="30" as="geometry"/></mxCell><mxCell id="y5CUCEXgKgvH5bJ2dIs5-43" value="PK" style="shape=partialRectangle;overflow=hidden;connectable=0;fillColor=none;top=0;left=0;bottom=0;right=0;fontStyle=1;" parent="y5CUCEXgKgvH5bJ2dIs5-42" vertex="1"><mxGeometry width="30" height="30" as="geometry"><mxRectangle width="30" height="30" as="alternateBounds"/></mxGeometry></mxCell><mxCell id="y5CUCEXgKgvH5bJ2dIs5-44" value="id: UUID" style="shape=partialRectangle;overflow=hidden;connectable=0;fillColor=none;top=0;left=0;bottom=0;right=0;align=left;spacingLeft=6;fontStyle=5;" parent="y5CUCEXgKgvH5bJ2dIs5-42" vertex="1"><mxGeometry x="30" width="280" height="30" as="geometry"><mxRectangle width="280" height="30" as="alternateBounds"/></mxGeometry></mxCell><mxCell id="y5CUCEXgKgvH5bJ2dIs5-45" value="" style="shape=partialRectangle;collapsible=0;dropTarget=0;pointerEvents=0;fillColor=none;points=[[0,0.5],[1,0.5]];portConstraint=eastwest;top=0;left=0;right=0;bottom=0;" parent="y5CUCEXgKgvH5bJ2dIs5-41" vertex="1"><mxGeometry y="60" width="310" height="130" as="geometry"/></mxCell><mxCell id="y5CUCEXgKgvH5bJ2dIs5-46" value="" style="shape=partialRectangle;overflow=hidden;connectable=0;fillColor=none;top=0;left=0;bottom=0;right=0;" parent="y5CUCEXgKgvH5bJ2dIs5-45" vertex="1"><mxGeometry width="30" height="130" as="geometry"><mxRectangle width="30" height="130" as="alternateBounds"/></mxGeometry></mxCell><mxCell id="y5CUCEXgKgvH5bJ2dIs5-47" value="password VARCHAR NOT NULL&#10;username VARCHAR NOT NULL UNIQUE KEY&#10;email VARCHAR NOT NULL UNIQUE KEY" style="shape=partialRectangle;overflow=hidden;connectable=0;fillColor=none;top=0;left=0;bottom=0;right=0;align=left;spacingLeft=6;" parent="y5CUCEXgKgvH5bJ2dIs5-45" vertex="1"><mxGeometry x="30" width="280" height="130" as="geometry"><mxRectangle width="280" height="130" as="alternateBounds"/></mxGeometry></mxCell><mxCell id="42" value="permission_group" style="shape=table;startSize=40;container=1;collapsible=1;childLayout=tableLayout;fixedRows=1;rowLines=0;fontStyle=1;align=center;resizeLast=1;" parent="1" vertex="1"><mxGeometry x="-3020" y="1170" width="250" height="100" as="geometry"/></mxCell><mxCell id="43" value="" style="shape=partialRectangle;collapsible=0;dropTarget=0;pointerEvents=0;fillColor=none;points=[[0,0.5],[1,0.5]];portConstraint=eastwest;top=0;left=0;right=0;bottom=1;" parent="42" vertex="1"><mxGeometry y="40" width="250" height="30" as="geometry"/></mxCell><mxCell id="44" value="PK" style="shape=partialRectangle;overflow=hidden;connectable=0;fillColor=none;top=0;left=0;bottom=0;right=0;fontStyle=1;" parent="43" vertex="1"><mxGeometry width="30" height="30" as="geometry"><mxRectangle width="30" height="30" as="alternateBounds"/></mxGeometry></mxCell><mxCell id="45" value="group_name: VARCHAR NOT NULL" style="shape=partialRectangle;overflow=hidden;connectable=0;fillColor=none;top=0;left=0;bottom=0;right=0;align=left;spacingLeft=6;fontStyle=5;" parent="43" vertex="1"><mxGeometry x="30" width="220" height="30" as="geometry"><mxRectangle width="220" height="30" as="alternateBounds"/></mxGeometry></mxCell><mxCell id="46" value="" style="shape=partialRectangle;collapsible=0;dropTarget=0;pointerEvents=0;fillColor=none;points=[[0,0.5],[1,0.5]];portConstraint=eastwest;top=0;left=0;right=0;bottom=0;" parent="42" vertex="1"><mxGeometry y="70" width="250" height="30" as="geometry"/></mxCell><mxCell id="47" value="" style="shape=partialRectangle;overflow=hidden;connectable=0;fillColor=none;top=0;left=0;bottom=0;right=0;fontStyle=1" parent="46" vertex="1"><mxGeometry width="30" height="30" as="geometry"><mxRectangle width="30" height="30" as="alternateBounds"/></mxGeometry></mxCell><mxCell id="48" value="level INT NOT NULL" style="shape=partialRectangle;overflow=hidden;connectable=0;fillColor=none;top=0;left=0;bottom=0;right=0;align=left;spacingLeft=6;fontStyle=0" parent="46" vertex="1"><mxGeometry x="30" width="220" height="30" as="geometry"><mxRectangle width="220" height="30" as="alternateBounds"/></mxGeometry></mxCell><mxCell id="52" style="edgeStyle=orthogonalEdgeStyle;rounded=0;orthogonalLoop=1;jettySize=auto;html=1;endArrow=none;endFill=0;entryX=-0.003;entryY=0.153;entryDx=0;entryDy=0;entryPerimeter=0;" parent="1" source="y5CUCEXgKgvH5bJ2dIs5-42" target="10" edge="1"><mxGeometry relative="1" as="geometry"><Array as="points"><mxPoint x="-2650" y="855"/><mxPoint x="-2650" y="780"/><mxPoint x="-2790" y="780"/><mxPoint x="-2790" y="588"/></Array><mxPoint x="-2910" y="490" as="targetPoint"/><mxPoint x="-2910" y="570" as="sourcePoint"/></mxGeometry></mxCell><mxCell id="53" value="location" style="shape=table;startSize=30;container=1;collapsible=1;childLayout=tableLayout;fixedRows=1;rowLines=0;fontStyle=1;align=center;resizeLast=1;" parent="1" vertex="1"><mxGeometry x="-3110" y="60" width="250" height="200" as="geometry"/></mxCell><mxCell id="54" value="" style="shape=partialRectangle;collapsible=0;dropTarget=0;pointerEvents=0;fillColor=none;points=[[0,0.5],[1,0.5]];portConstraint=eastwest;top=0;left=0;right=0;bottom=1;" parent="53" vertex="1"><mxGeometry y="30" width="250" height="30" as="geometry"/></mxCell><mxCell id="55" value="PK" style="shape=partialRectangle;overflow=hidden;connectable=0;fillColor=none;top=0;left=0;bottom=0;right=0;fontStyle=1;" parent="54" vertex="1"><mxGeometry width="30" height="30" as="geometry"><mxRectangle width="30" height="30" as="alternateBounds"/></mxGeometry></mxCell><mxCell id="56" value="id: UUID" style="shape=partialRectangle;overflow=hidden;connectable=0;fillColor=none;top=0;left=0;bottom=0;right=0;align=left;spacingLeft=6;fontStyle=5;" parent="54" vertex="1"><mxGeometry x="30" width="220" height="30" as="geometry"><mxRectangle width="220" height="30" as="alternateBounds"/></mxGeometry></mxCell><mxCell id="57" value="" style="shape=partialRectangle;collapsible=0;dropTarget=0;pointerEvents=0;fillColor=none;points=[[0,0.5],[1,0.5]];portConstraint=eastwest;top=0;left=0;right=0;bottom=0;" parent="53" vertex="1"><mxGeometry y="60" width="250" height="140" as="geometry"/></mxCell><mxCell id="58" value="FK&#10;&#10;&#10;&#10;&#10;&#10;&#10;" style="shape=partialRectangle;overflow=hidden;connectable=0;fillColor=none;top=0;left=0;bottom=0;right=0;" parent="57" vertex="1"><mxGeometry width="30" height="140" as="geometry"><mxRectangle width="30" height="140" as="alternateBounds"/></mxGeometry></mxCell><mxCell id="59" value="city VARCHAR&#10;country VARCHAR&#10;house_number VARCHAR&#10;street VARCHAR&#10;zip_code VARCHAR&#10;" style="shape=partialRectangle;overflow=hidden;connectable=0;fillColor=none;top=0;left=0;bottom=0;right=0;align=left;spacingLeft=6;" parent="57" vertex="1"><mxGeometry x="30" width="220" height="140" as="geometry"><mxRectangle width="220" height="140" as="alternateBounds"/></mxGeometry></mxCell><mxCell id="60" style="edgeStyle=orthogonalEdgeStyle;rounded=0;orthogonalLoop=1;jettySize=auto;html=1;startArrow=none;startFill=0;endArrow=none;endFill=0;exitX=0;exitY=0.75;exitDx=0;exitDy=0;entryX=1;entryY=0.5;entryDx=0;entryDy=0;jumpStyle=sharp;" parent="1" source="oCtHquc3aqy1SS7fhUfA-3" target="54" edge="1"><mxGeometry relative="1" as="geometry"><Array as="points"><mxPoint x="-2790" y="230"/><mxPoint x="-2790" y="100"/><mxPoint x="-2860" y="100"/></Array><mxPoint x="-2635" y="300" as="sourcePoint"/><mxPoint x="-2635" y="280" as="targetPoint"/></mxGeometry></mxCell><mxCell id="iVBplkfMKlT2nkF5sdp4-63" value="apply" style="shape=table;startSize=30;container=1;collapsible=1;childLayout=tableLayout;fixedRows=1;rowLines=0;fontStyle=1;align=center;resizeLast=1;" parent="1" vertex="1"><mxGeometry x="-2800" y="320" width="330" height="160" as="geometry"/></mxCell><mxCell id="iVBplkfMKlT2nkF5sdp4-64" value="" style="shape=partialRectangle;collapsible=0;dropTarget=0;pointerEvents=0;fillColor=none;points=[[0,0.5],[1,0.5]];portConstraint=eastwest;top=0;left=0;right=0;bottom=1;" parent="iVBplkfMKlT2nkF5sdp4-63" vertex="1"><mxGeometry y="30" width="330" height="40" as="geometry"/></mxCell><mxCell id="iVBplkfMKlT2nkF5sdp4-65" value="PK" style="shape=partialRectangle;overflow=hidden;connectable=0;fillColor=none;top=0;left=0;bottom=0;right=0;fontStyle=1;" parent="iVBplkfMKlT2nkF5sdp4-64" vertex="1"><mxGeometry width="30" height="40" as="geometry"><mxRectangle width="30" height="40" as="alternateBounds"/></mxGeometry></mxCell><mxCell id="iVBplkfMKlT2nkF5sdp4-66" value="id: UUID" style="shape=partialRectangle;overflow=hidden;connectable=0;fillColor=none;top=0;left=0;bottom=0;right=0;align=left;spacingLeft=6;fontStyle=5;" parent="iVBplkfMKlT2nkF5sdp4-64" vertex="1"><mxGeometry x="30" width="300" height="40" as="geometry"><mxRectangle width="300" height="40" as="alternateBounds"/></mxGeometry></mxCell><mxCell id="iVBplkfMKlT2nkF5sdp4-67" value="" style="shape=partialRectangle;collapsible=0;dropTarget=0;pointerEvents=0;fillColor=none;points=[[0,0.5],[1,0.5]];portConstraint=eastwest;top=0;left=0;right=0;bottom=0;" parent="iVBplkfMKlT2nkF5sdp4-63" vertex="1"><mxGeometry y="70" width="330" height="90" as="geometry"/></mxCell><mxCell id="iVBplkfMKlT2nkF5sdp4-68" value="FK&#10;FK&#10;&#10;&#10;&#10;&#10;" style="shape=partialRectangle;overflow=hidden;connectable=0;fillColor=none;top=0;left=0;bottom=0;right=0;" parent="iVBplkfMKlT2nkF5sdp4-67" vertex="1"><mxGeometry width="30" height="90" as="geometry"><mxRectangle width="30" height="90" as="alternateBounds"/></mxGeometry></mxCell><mxCell id="iVBplkfMKlT2nkF5sdp4-69" value="student_id: UUID FOREIGN KEY&#10;job_ad_id: UUID FOREIGN KEY&#10;applied: DATE NOT NULL&#10;&#10;&#10;" style="shape=partialRectangle;overflow=hidden;connectable=0;fillColor=none;top=0;left=0;bottom=0;right=0;align=left;spacingLeft=6;fontStyle=0" parent="iVBplkfMKlT2nkF5sdp4-67" vertex="1"><mxGeometry x="30" width="300" height="90" as="geometry"><mxRectangle width="300" height="90" as="alternateBounds"/></mxGeometry></mxCell><mxCell id="-W2Q015IKFyVKp0I0z7p-60" style="edgeStyle=orthogonalEdgeStyle;rounded=0;orthogonalLoop=1;jettySize=auto;html=1;entryX=-0.002;entryY=0.091;entryDx=0;entryDy=0;entryPerimeter=0;endArrow=none;endFill=0;jumpStyle=sharp;" parent="1" target="iVBplkfMKlT2nkF5sdp4-67" edge="1"><mxGeometry relative="1" as="geometry"><Array as="points"><mxPoint x="-2790" y="560"/><mxPoint x="-2790" y="500"/><mxPoint x="-2830" y="500"/><mxPoint x="-2830" y="398"/></Array><mxPoint x="-2770" y="560" as="sourcePoint"/></mxGeometry></mxCell><mxCell id="-W2Q015IKFyVKp0I0z7p-61" style="edgeStyle=orthogonalEdgeStyle;rounded=0;orthogonalLoop=1;jettySize=auto;html=1;endArrow=none;endFill=0;jumpStyle=sharp;entryX=0;entryY=0.5;entryDx=0;entryDy=0;" parent="1" target="iVBplkfMKlT2nkF5sdp4-64" edge="1"><mxGeometry relative="1" as="geometry"><Array as="points"><mxPoint x="-2840" y="120"/><mxPoint x="-2840" y="370"/></Array><mxPoint x="-2760" y="120" as="sourcePoint"/></mxGeometry></mxCell><mxCell id="n9_tp1qEzfxkYx_4Npgm-60" style="edgeStyle=orthogonalEdgeStyle;rounded=0;orthogonalLoop=1;jettySize=auto;html=1;entryX=-0.003;entryY=0.729;entryDx=0;entryDy=0;entryPerimeter=0;endArrow=none;endFill=0;" parent="1" source="31" target="43" edge="1"><mxGeometry relative="1" as="geometry"><Array as="points"><mxPoint x="-3090" y="1135"/><mxPoint x="-3090" y="1230"/><mxPoint x="-3021" y="1230"/></Array></mxGeometry></mxCell><mxCell id="n9_tp1qEzfxkYx_4Npgm-61" value="rating" style="shape=table;startSize=30;container=1;collapsible=1;childLayout=tableLayout;fixedRows=1;rowLines=0;fontStyle=1;align=center;resizeLast=1;" parent="1" vertex="1"><mxGeometry x="-3112.5" y="315" width="255" height="170" as="geometry"/></mxCell><mxCell id="n9_tp1qEzfxkYx_4Npgm-62" value="" style="shape=partialRectangle;collapsible=0;dropTarget=0;pointerEvents=0;fillColor=none;points=[[0,0.5],[1,0.5]];portConstraint=eastwest;top=0;left=0;right=0;bottom=1;" parent="n9_tp1qEzfxkYx_4Npgm-61" vertex="1"><mxGeometry y="30" width="255" height="30" as="geometry"/></mxCell><mxCell id="n9_tp1qEzfxkYx_4Npgm-63" value="PK" style="shape=partialRectangle;overflow=hidden;connectable=0;fillColor=none;top=0;left=0;bottom=0;right=0;fontStyle=1;" parent="n9_tp1qEzfxkYx_4Npgm-62" vertex="1"><mxGeometry width="30" height="30" as="geometry"><mxRectangle width="30" height="30" as="alternateBounds"/></mxGeometry></mxCell><mxCell id="n9_tp1qEzfxkYx_4Npgm-64" value="id: UUID" style="shape=partialRectangle;overflow=hidden;connectable=0;fillColor=none;top=0;left=0;bottom=0;right=0;align=left;spacingLeft=6;fontStyle=5;" parent="n9_tp1qEzfxkYx_4Npgm-62" vertex="1"><mxGeometry x="30" width="225" height="30" as="geometry"><mxRectangle width="225" height="30" as="alternateBounds"/></mxGeometry></mxCell><mxCell id="n9_tp1qEzfxkYx_4Npgm-65" value="" style="shape=partialRectangle;collapsible=0;dropTarget=0;pointerEvents=0;fillColor=none;points=[[0,0.5],[1,0.5]];portConstraint=eastwest;top=0;left=0;right=0;bottom=0;" parent="n9_tp1qEzfxkYx_4Npgm-61" vertex="1"><mxGeometry y="60" width="255" height="110" as="geometry"/></mxCell><mxCell id="n9_tp1qEzfxkYx_4Npgm-66" value="&#10;&#10;&#10;&#10;FK&#10;FK&#10;&#10;&#10;" style="shape=partialRectangle;overflow=hidden;connectable=0;fillColor=none;top=0;left=0;bottom=0;right=0;" parent="n9_tp1qEzfxkYx_4Npgm-65" vertex="1"><mxGeometry width="30" height="110" as="geometry"><mxRectangle width="30" height="110" as="alternateBounds"/></mxGeometry></mxCell><mxCell id="n9_tp1qEzfxkYx_4Npgm-67" value="timestamp TIMESTAMP NOT NULL&#10;value INT NOT NULL&#10;company UUID&#10;student UUID" style="shape=partialRectangle;overflow=hidden;connectable=0;fillColor=none;top=0;left=0;bottom=0;right=0;align=left;spacingLeft=6;" parent="n9_tp1qEzfxkYx_4Npgm-65" vertex="1"><mxGeometry x="30" width="225" height="110" as="geometry"><mxRectangle width="225" height="110" as="alternateBounds"/></mxGeometry></mxCell><mxCell id="n9_tp1qEzfxkYx_4Npgm-71" style="rounded=0;orthogonalLoop=1;jettySize=auto;html=1;entryX=-0.001;entryY=0.767;entryDx=0;entryDy=0;entryPerimeter=0;endArrow=none;endFill=0;edgeStyle=orthogonalEdgeStyle;jumpStyle=sharp;jumpSize=7;strokeWidth=1;exitX=-0.014;exitY=0.7;exitDx=0;exitDy=0;exitPerimeter=0;" parent="1" source="n9_tp1qEzfxkYx_4Npgm-65" target="7" edge="1"><mxGeometry relative="1" as="geometry"><Array as="points"><mxPoint x="-3170" y="452"/><mxPoint x="-3170" y="563"/></Array></mxGeometry></mxCell><mxCell id="n9_tp1qEzfxkYx_4Npgm-72" style="edgeStyle=orthogonalEdgeStyle;rounded=0;orthogonalLoop=1;jettySize=auto;html=1;endArrow=none;endFill=0;entryX=0;entryY=0.5;entryDx=0;entryDy=0;exitX=0.01;exitY=0.591;exitDx=0;exitDy=0;exitPerimeter=0;" parent="1" source="n9_tp1qEzfxkYx_4Npgm-65" target="14" edge="1"><mxGeometry relative="1" as="geometry"><Array as="points"><mxPoint x="-3180" y="440"/><mxPoint x="-3180" y="625"/></Array><mxPoint x="-3180" y="335" as="targetPoint"/></mxGeometry></mxCell><mxCell id="Np3A57KPMqDhTqpJiNL_-67" style="edgeStyle=orthogonalEdgeStyle;rounded=0;orthogonalLoop=1;jettySize=auto;html=1;entryX=0;entryY=0.5;entryDx=0;entryDy=0;endArrow=none;endFill=0;exitX=0.003;exitY=0.15;exitDx=0;exitDy=0;exitPerimeter=0;jumpStyle=sharp;" parent="1" source="oCtHquc3aqy1SS7fhUfA-7" target="14" edge="1"><mxGeometry relative="1" as="geometry"><Array as="points"><mxPoint x="-2820" y="161"/><mxPoint x="-2820" y="280"/><mxPoint x="-3130" y="280"/><mxPoint x="-3130" y="625"/></Array><mxPoint x="-2850" y="119.79999999999995" as="sourcePoint"/><mxPoint x="-2870" y="335" as="targetPoint"/></mxGeometry></mxCell><mxCell id="13" value="company" style="shape=table;startSize=30;container=1;collapsible=1;childLayout=tableLayout;fixedRows=1;rowLines=0;fontStyle=1;align=center;resizeLast=1;" parent="1" vertex="1"><mxGeometry x="-3100" y="580" width="280" height="190" as="geometry"/></mxCell><mxCell id="14" value="" style="shape=partialRectangle;collapsible=0;dropTarget=0;pointerEvents=0;fillColor=none;points=[[0,0.5],[1,0.5]];portConstraint=eastwest;top=0;left=0;right=0;bottom=1;" parent="13" vertex="1"><mxGeometry y="30" width="280" height="30" as="geometry"/></mxCell><mxCell id="15" value="PK" style="shape=partialRectangle;overflow=hidden;connectable=0;fillColor=none;top=0;left=0;bottom=0;right=0;fontStyle=1;" parent="14" vertex="1"><mxGeometry width="30" height="30" as="geometry"><mxRectangle width="30" height="30" as="alternateBounds"/></mxGeometry></mxCell><mxCell id="16" value="id: UUID" style="shape=partialRectangle;overflow=hidden;connectable=0;fillColor=none;top=0;left=0;bottom=0;right=0;align=left;spacingLeft=6;fontStyle=5;" parent="14" vertex="1"><mxGeometry x="30" width="250" height="30" as="geometry"><mxRectangle width="250" height="30" as="alternateBounds"/></mxGeometry></mxCell><mxCell id="17" value="" style="shape=partialRectangle;collapsible=0;dropTarget=0;pointerEvents=0;fillColor=none;points=[[0,0.5],[1,0.5]];portConstraint=eastwest;top=0;left=0;right=0;bottom=0;" parent="13" vertex="1"><mxGeometry y="60" width="280" height="130" as="geometry"/></mxCell><mxCell id="18" value="FK&#10;&#10;&#10;FK" style="shape=partialRectangle;overflow=hidden;connectable=0;fillColor=none;top=0;left=0;bottom=0;right=0;" parent="17" vertex="1"><mxGeometry width="30" height="130" as="geometry"><mxRectangle width="30" height="130" as="alternateBounds"/></mxGeometry></mxCell><mxCell id="19" value="name VARCHAR NOT NULL&#10;user_id UUID FOREIGN KEY&#10;image INT&#10;description VARCHAR&#10;phone VARCHAR&#10;location_id UUID NOT NULL FOREIGN KEY&#10;" style="shape=partialRectangle;overflow=hidden;connectable=0;fillColor=none;top=0;left=0;bottom=0;right=0;align=left;spacingLeft=6;" parent="17" vertex="1"><mxGeometry x="30" width="250" height="130" as="geometry"><mxRectangle width="250" height="130" as="alternateBounds"/></mxGeometry></mxCell><mxCell id="PNOb-SUoidvYYE4oXKP7-68" style="edgeStyle=orthogonalEdgeStyle;rounded=0;orthogonalLoop=1;jettySize=auto;html=1;entryX=0;entryY=0.5;entryDx=0;entryDy=0;jumpStyle=sharp;endArrow=none;endFill=0;" parent="1" source="17" target="54" edge="1"><mxGeometry relative="1" as="geometry"><mxPoint x="-3230" y="400" as="targetPoint"/><Array as="points"><mxPoint x="-3210" y="705"/><mxPoint x="-3210" y="105"/></Array></mxGeometry></mxCell><mxCell id="PNOb-SUoidvYYE4oXKP7-69" style="edgeStyle=orthogonalEdgeStyle;rounded=0;orthogonalLoop=1;jettySize=auto;html=1;entryX=0;entryY=0.5;entryDx=0;entryDy=0;jumpStyle=sharp;exitX=-0.001;exitY=0.849;exitDx=0;exitDy=0;exitPerimeter=0;endArrow=none;endFill=0;" parent="1" source="10" target="54" edge="1"><mxGeometry relative="1" as="geometry"><Array as="points"><mxPoint x="-2770" y="710"/><mxPoint x="-2810" y="710"/><mxPoint x="-2810" y="530"/><mxPoint x="-3150" y="530"/><mxPoint x="-3150" y="105"/></Array></mxGeometry></mxCell></root></mxGraphModel></diagram><diagram id="V4uwi5X2ksBb3gP0lLI-" name="Semantisch"><mxGraphModel dx="722" dy="367" grid="1" gridSize="10" guides="1" tooltips="1" connect="1" arrows="1" fold="1" page="1" pageScale="1" pageWidth="1654" pageHeight="2336" math="0" shadow="0"><root><mxCell id="nWNUjF1E9qa1LFOPbgsn-0"/><mxCell id="nWNUjF1E9qa1LFOPbgsn-1" parent="nWNUjF1E9qa1LFOPbgsn-0"/><mxCell id="nWNUjF1E9qa1LFOPbgsn-5" value="User" style="swimlane;fontStyle=0;childLayout=stackLayout;horizontal=1;startSize=26;horizontalStack=0;resizeParent=1;resizeParentMax=0;resizeLast=0;collapsible=1;marginBottom=0;align=center;fontSize=14;" parent="nWNUjF1E9qa1LFOPbgsn-1" vertex="1"><mxGeometry x="340" y="176" width="160" height="116" as="geometry"/></mxCell><mxCell id="nWNUjF1E9qa1LFOPbgsn-6" value="user_id: uuid" style="text;strokeColor=none;fillColor=none;spacingLeft=4;spacingRight=4;overflow=hidden;rotatable=0;points=[[0,0.5],[1,0.5]];portConstraint=eastwest;fontSize=12;fontStyle=4" parent="nWNUjF1E9qa1LFOPbgsn-5" vertex="1"><mxGeometry y="26" width="160" height="30" as="geometry"/></mxCell><mxCell id="nWNUjF1E9qa1LFOPbgsn-10" value="email: varchar" style="text;strokeColor=none;fillColor=none;spacingLeft=4;spacingRight=4;overflow=hidden;rotatable=0;points=[[0,0.5],[1,0.5]];portConstraint=eastwest;fontSize=12;" parent="nWNUjF1E9qa1LFOPbgsn-5" vertex="1"><mxGeometry y="56" width="160" height="30" as="geometry"/></mxCell><mxCell id="nWNUjF1E9qa1LFOPbgsn-12" value="password: varchar" style="text;strokeColor=none;fillColor=none;spacingLeft=4;spacingRight=4;overflow=hidden;rotatable=0;points=[[0,0.5],[1,0.5]];portConstraint=eastwest;fontSize=12;" parent="nWNUjF1E9qa1LFOPbgsn-5" vertex="1"><mxGeometry y="86" width="160" height="30" as="geometry"/></mxCell><mxCell id="nWNUjF1E9qa1LFOPbgsn-31" value="Advertisement" style="swimlane;fontStyle=0;childLayout=stackLayout;horizontal=1;startSize=26;horizontalStack=0;resizeParent=1;resizeParentMax=0;resizeLast=0;collapsible=1;marginBottom=0;align=center;fontSize=14;" parent="nWNUjF1E9qa1LFOPbgsn-1" vertex="1"><mxGeometry x="420" y="706" width="160" height="236" as="geometry"/></mxCell><mxCell id="nWNUjF1E9qa1LFOPbgsn-32" value="advertisement_id: uuid" style="text;strokeColor=none;fillColor=none;spacingLeft=4;spacingRight=4;overflow=hidden;rotatable=0;points=[[0,0.5],[1,0.5]];portConstraint=eastwest;fontSize=12;fontStyle=4" parent="nWNUjF1E9qa1LFOPbgsn-31" vertex="1"><mxGeometry y="26" width="160" height="30" as="geometry"/></mxCell><mxCell id="nWNUjF1E9qa1LFOPbgsn-33" value="title: varchar" style="text;strokeColor=none;fillColor=none;spacingLeft=4;spacingRight=4;overflow=hidden;rotatable=0;points=[[0,0.5],[1,0.5]];portConstraint=eastwest;fontSize=12;" parent="nWNUjF1E9qa1LFOPbgsn-31" vertex="1"><mxGeometry y="56" width="160" height="30" as="geometry"/></mxCell><mxCell id="nWNUjF1E9qa1LFOPbgsn-34" value="description: varchar" style="text;strokeColor=none;fillColor=none;spacingLeft=4;spacingRight=4;overflow=hidden;rotatable=0;points=[[0,0.5],[1,0.5]];portConstraint=eastwest;fontSize=12;" parent="nWNUjF1E9qa1LFOPbgsn-31" vertex="1"><mxGeometry y="86" width="160" height="30" as="geometry"/></mxCell><mxCell id="nWNUjF1E9qa1LFOPbgsn-35" value="deadline: timestamp" style="text;strokeColor=none;fillColor=none;spacingLeft=4;spacingRight=4;overflow=hidden;rotatable=0;points=[[0,0.5],[1,0.5]];portConstraint=eastwest;fontSize=12;" parent="nWNUjF1E9qa1LFOPbgsn-31" vertex="1"><mxGeometry y="116" width="160" height="30" as="geometry"/></mxCell><mxCell id="nWNUjF1E9qa1LFOPbgsn-36" value="job_type: varchar" style="text;strokeColor=none;fillColor=none;spacingLeft=4;spacingRight=4;overflow=hidden;rotatable=0;points=[[0,0.5],[1,0.5]];portConstraint=eastwest;fontSize=12;" parent="nWNUjF1E9qa1LFOPbgsn-31" vertex="1"><mxGeometry y="146" width="160" height="30" as="geometry"/></mxCell><mxCell id="nWNUjF1E9qa1LFOPbgsn-38" value="remote: bool" style="text;strokeColor=none;fillColor=none;spacingLeft=4;spacingRight=4;overflow=hidden;rotatable=0;points=[[0,0.5],[1,0.5]];portConstraint=eastwest;fontSize=12;" parent="nWNUjF1E9qa1LFOPbgsn-31" vertex="1"><mxGeometry y="176" width="160" height="30" as="geometry"/></mxCell><mxCell id="b_fLqj3lkS3d0FPj1qh8-29" value="active: bool" style="text;strokeColor=none;fillColor=none;spacingLeft=4;spacingRight=4;overflow=hidden;rotatable=0;points=[[0,0.5],[1,0.5]];portConstraint=eastwest;fontSize=12;" parent="nWNUjF1E9qa1LFOPbgsn-31" vertex="1"><mxGeometry y="206" width="160" height="30" as="geometry"/></mxCell><mxCell id="F6j0jKHrMxfBKdpTTL7P-19" style="rounded=0;orthogonalLoop=1;jettySize=auto;html=1;endArrow=none;endFill=0;exitX=0.5;exitY=0;exitDx=0;exitDy=0;edgeStyle=orthogonalEdgeStyle;" parent="nWNUjF1E9qa1LFOPbgsn-1" source="nWNUjF1E9qa1LFOPbgsn-39" target="nWNUjF1E9qa1LFOPbgsn-45" edge="1"><mxGeometry relative="1" as="geometry"><mxPoint x="1060" y="827" as="targetPoint"/></mxGeometry></mxCell><mxCell id="b_fLqj3lkS3d0FPj1qh8-28" style="edgeStyle=orthogonalEdgeStyle;rounded=0;orthogonalLoop=1;jettySize=auto;html=1;entryX=1;entryY=0.5;entryDx=0;entryDy=0;endArrow=none;endFill=0;" parent="nWNUjF1E9qa1LFOPbgsn-1" source="nWNUjF1E9qa1LFOPbgsn-39" target="nWNUjF1E9qa1LFOPbgsn-34" edge="1"><mxGeometry relative="1" as="geometry"/></mxCell><mxCell id="nWNUjF1E9qa1LFOPbgsn-39" value="Company_erstellt_Ad" style="shape=rhombus;perimeter=rhombusPerimeter;whiteSpace=wrap;html=1;align=center;fontSize=12;" parent="nWNUjF1E9qa1LFOPbgsn-1" vertex="1"><mxGeometry x="610" y="772" width="220" height="70" as="geometry"/></mxCell><mxCell id="nWNUjF1E9qa1LFOPbgsn-42" value="Student" style="swimlane;fontStyle=0;childLayout=stackLayout;horizontal=1;startSize=26;horizontalStack=0;resizeParent=1;resizeParentMax=0;resizeLast=0;collapsible=1;marginBottom=0;align=center;fontSize=14;" parent="nWNUjF1E9qa1LFOPbgsn-1" vertex="1"><mxGeometry x="40" y="392" width="160" height="206" as="geometry"/></mxCell><mxCell id="VeuRT2V_BpshuTKpWbaz-13" value="id_fk_student: uuid" style="text;strokeColor=none;fillColor=none;spacingLeft=4;spacingRight=4;overflow=hidden;rotatable=0;points=[[0,0.5],[1,0.5]];portConstraint=eastwest;fontSize=12;fontStyle=4" parent="nWNUjF1E9qa1LFOPbgsn-42" vertex="1"><mxGeometry y="26" width="160" height="30" as="geometry"/></mxCell><mxCell id="VeuRT2V_BpshuTKpWbaz-14" value="first_name: varchar" style="text;strokeColor=none;fillColor=none;spacingLeft=4;spacingRight=4;overflow=hidden;rotatable=0;points=[[0,0.5],[1,0.5]];portConstraint=eastwest;fontSize=12;fontStyle=0" parent="nWNUjF1E9qa1LFOPbgsn-42" vertex="1"><mxGeometry y="56" width="160" height="30" as="geometry"/></mxCell><mxCell id="VeuRT2V_BpshuTKpWbaz-15" value="last_name: varchar" style="text;strokeColor=none;fillColor=none;spacingLeft=4;spacingRight=4;overflow=hidden;rotatable=0;points=[[0,0.5],[1,0.5]];portConstraint=eastwest;fontSize=12;fontStyle=0" parent="nWNUjF1E9qa1LFOPbgsn-42" vertex="1"><mxGeometry y="86" width="160" height="30" as="geometry"/></mxCell><mxCell id="4SUCMoNzY-szO9SFEys--6" value="major_study: varchar" style="text;strokeColor=none;fillColor=none;spacingLeft=4;spacingRight=4;overflow=hidden;rotatable=0;points=[[0,0.5],[1,0.5]];portConstraint=eastwest;fontSize=12;" parent="nWNUjF1E9qa1LFOPbgsn-42" vertex="1"><mxGeometry y="116" width="160" height="30" as="geometry"/></mxCell><mxCell id="4SUCMoNzY-szO9SFEys--7" value="list_of_skills: varchar" style="text;strokeColor=none;fillColor=none;spacingLeft=4;spacingRight=4;overflow=hidden;rotatable=0;points=[[0,0.5],[1,0.5]];portConstraint=eastwest;fontSize=12;" parent="nWNUjF1E9qa1LFOPbgsn-42" vertex="1"><mxGeometry y="146" width="160" height="30" as="geometry"/></mxCell><mxCell id="4SUCMoNzY-szO9SFEys--9" value="degree:varchar" style="text;strokeColor=none;fillColor=none;spacingLeft=4;spacingRight=4;overflow=hidden;rotatable=0;points=[[0,0.5],[1,0.5]];portConstraint=eastwest;fontSize=12;" parent="nWNUjF1E9qa1LFOPbgsn-42" vertex="1"><mxGeometry y="176" width="160" height="30" as="geometry"/></mxCell><mxCell id="b_fLqj3lkS3d0FPj1qh8-13" style="edgeStyle=orthogonalEdgeStyle;rounded=0;orthogonalLoop=1;jettySize=auto;html=1;endArrow=none;endFill=0;entryX=1;entryY=0.5;entryDx=0;entryDy=0;" parent="nWNUjF1E9qa1LFOPbgsn-1" source="nWNUjF1E9qa1LFOPbgsn-45" target="tBWTlAhO-K5KG-LtTAEM-0" edge="1"><mxGeometry relative="1" as="geometry"><Array as="points"><mxPoint x="430" y="440"/><mxPoint x="430" y="387"/></Array><mxPoint x="430" y="360" as="targetPoint"/></mxGeometry></mxCell><mxCell id="nWNUjF1E9qa1LFOPbgsn-45" value="Company" style="swimlane;fontStyle=0;childLayout=stackLayout;horizontal=1;startSize=26;horizontalStack=0;resizeParent=1;resizeParentMax=0;resizeLast=0;collapsible=1;marginBottom=0;align=center;fontSize=14;" parent="nWNUjF1E9qa1LFOPbgsn-1" vertex="1"><mxGeometry x="640" y="399" width="160" height="176" as="geometry"/></mxCell><mxCell id="VeuRT2V_BpshuTKpWbaz-19" value="id_fk_company: uuid" style="text;strokeColor=none;fillColor=none;spacingLeft=4;spacingRight=4;overflow=hidden;rotatable=0;points=[[0,0.5],[1,0.5]];portConstraint=eastwest;fontSize=12;fontStyle=4" parent="nWNUjF1E9qa1LFOPbgsn-45" vertex="1"><mxGeometry y="26" width="160" height="30" as="geometry"/></mxCell><mxCell id="VeuRT2V_BpshuTKpWbaz-20" value="name: varchar" style="text;strokeColor=none;fillColor=none;spacingLeft=4;spacingRight=4;overflow=hidden;rotatable=0;points=[[0,0.5],[1,0.5]];portConstraint=eastwest;fontSize=12;fontStyle=0" parent="nWNUjF1E9qa1LFOPbgsn-45" vertex="1"><mxGeometry y="56" width="160" height="30" as="geometry"/></mxCell><mxCell id="F6j0jKHrMxfBKdpTTL7P-12" value="image: int" style="text;strokeColor=none;fillColor=none;spacingLeft=4;spacingRight=4;overflow=hidden;rotatable=0;points=[[0,0.5],[1,0.5]];portConstraint=eastwest;fontSize=12;" parent="nWNUjF1E9qa1LFOPbgsn-45" vertex="1"><mxGeometry y="86" width="160" height="30" as="geometry"/></mxCell><mxCell id="F6j0jKHrMxfBKdpTTL7P-10" value="description: varchar" style="text;strokeColor=none;fillColor=none;spacingLeft=4;spacingRight=4;overflow=hidden;rotatable=0;points=[[0,0.5],[1,0.5]];portConstraint=eastwest;fontSize=12;" parent="nWNUjF1E9qa1LFOPbgsn-45" vertex="1"><mxGeometry y="116" width="160" height="30" as="geometry"/></mxCell><mxCell id="nWNUjF1E9qa1LFOPbgsn-46" value="phone: varchar" style="text;strokeColor=none;fillColor=none;spacingLeft=4;spacingRight=4;overflow=hidden;rotatable=0;points=[[0,0.5],[1,0.5]];portConstraint=eastwest;fontSize=12;fontStyle=0" parent="nWNUjF1E9qa1LFOPbgsn-45" vertex="1"><mxGeometry y="146" width="160" height="30" as="geometry"/></mxCell><mxCell id="b_fLqj3lkS3d0FPj1qh8-27" style="edgeStyle=orthogonalEdgeStyle;rounded=0;orthogonalLoop=1;jettySize=auto;html=1;entryX=0.005;entryY=0.078;entryDx=0;entryDy=0;entryPerimeter=0;endArrow=none;endFill=0;" parent="nWNUjF1E9qa1LFOPbgsn-1" source="nWNUjF1E9qa1LFOPbgsn-54" target="nWNUjF1E9qa1LFOPbgsn-35" edge="1"><mxGeometry relative="1" as="geometry"><Array as="points"><mxPoint x="360" y="824"/></Array></mxGeometry></mxCell><mxCell id="b_fLqj3lkS3d0FPj1qh8-30" style="edgeStyle=orthogonalEdgeStyle;rounded=0;orthogonalLoop=1;jettySize=auto;html=1;endArrow=none;endFill=0;entryX=0.998;entryY=0.619;entryDx=0;entryDy=0;entryPerimeter=0;exitX=0.153;exitY=0.397;exitDx=0;exitDy=0;exitPerimeter=0;" parent="nWNUjF1E9qa1LFOPbgsn-1" source="nWNUjF1E9qa1LFOPbgsn-54" edge="1"><mxGeometry relative="1" as="geometry"><Array as="points"><mxPoint x="284" y="550"/><mxPoint x="240" y="550"/></Array><mxPoint x="200.00000000000006" y="550.5699999999999" as="targetPoint"/><mxPoint x="283.32" y="588.5" as="sourcePoint"/></mxGeometry></mxCell><mxCell id="nWNUjF1E9qa1LFOPbgsn-54" value="Student_bewirbt_sich_auf_Ad" style="shape=rhombus;perimeter=rhombusPerimeter;whiteSpace=wrap;html=1;align=center;fontSize=12;" parent="nWNUjF1E9qa1LFOPbgsn-1" vertex="1"><mxGeometry x="250" y="630" width="220" height="70" as="geometry"/></mxCell><mxCell id="F6j0jKHrMxfBKdpTTL7P-26" value="1,1" style="text;html=1;align=center;verticalAlign=middle;resizable=0;points=[];autosize=1;strokeColor=none;fillColor=none;" parent="nWNUjF1E9qa1LFOPbgsn-1" vertex="1"><mxGeometry x="580" y="786" width="30" height="20" as="geometry"/></mxCell><mxCell id="F6j0jKHrMxfBKdpTTL7P-29" value="0,N" style="text;html=1;align=center;verticalAlign=middle;resizable=0;points=[];autosize=1;strokeColor=none;fillColor=none;" parent="nWNUjF1E9qa1LFOPbgsn-1" vertex="1"><mxGeometry x="200" y="500" width="30" height="20" as="geometry"/></mxCell><mxCell id="F6j0jKHrMxfBKdpTTL7P-30" value="0,N" style="text;html=1;align=center;verticalAlign=middle;resizable=0;points=[];autosize=1;strokeColor=none;fillColor=none;" parent="nWNUjF1E9qa1LFOPbgsn-1" vertex="1"><mxGeometry x="390" y="806" width="30" height="20" as="geometry"/></mxCell><mxCell id="F6j0jKHrMxfBKdpTTL7P-31" value="0,N" style="text;html=1;align=center;verticalAlign=middle;resizable=0;points=[];autosize=1;strokeColor=none;fillColor=none;" parent="nWNUjF1E9qa1LFOPbgsn-1" vertex="1"><mxGeometry x="730" y="575" width="30" height="20" as="geometry"/></mxCell><mxCell id="b_fLqj3lkS3d0FPj1qh8-17" style="edgeStyle=orthogonalEdgeStyle;rounded=0;orthogonalLoop=1;jettySize=auto;html=1;endArrow=none;endFill=0;" parent="nWNUjF1E9qa1LFOPbgsn-1" source="I_nAO9j3K_pSMa1pQxTB-1" target="b_fLqj3lkS3d0FPj1qh8-18" edge="1"><mxGeometry relative="1" as="geometry"><mxPoint x="1130" y="116" as="targetPoint"/><Array as="points"><mxPoint x="1130" y="88"/></Array></mxGeometry></mxCell><mxCell id="I_nAO9j3K_pSMa1pQxTB-1" value="Rating" style="swimlane;fontStyle=0;childLayout=stackLayout;horizontal=1;startSize=26;horizontalStack=0;resizeParent=1;resizeParentMax=0;resizeLast=0;collapsible=1;marginBottom=0;align=center;fontSize=14;" parent="nWNUjF1E9qa1LFOPbgsn-1" vertex="1"><mxGeometry x="30" width="160" height="116" as="geometry"/></mxCell><mxCell id="I_nAO9j3K_pSMa1pQxTB-2" value="id: uuid" style="text;strokeColor=none;fillColor=none;spacingLeft=4;spacingRight=4;overflow=hidden;rotatable=0;points=[[0,0.5],[1,0.5]];portConstraint=eastwest;fontSize=12;fontStyle=4" parent="I_nAO9j3K_pSMa1pQxTB-1" vertex="1"><mxGeometry y="26" width="160" height="30" as="geometry"/></mxCell><mxCell id="I_nAO9j3K_pSMa1pQxTB-3" value="timestamp: date" style="text;strokeColor=none;fillColor=none;spacingLeft=4;spacingRight=4;overflow=hidden;rotatable=0;points=[[0,0.5],[1,0.5]];portConstraint=eastwest;fontSize=12;" parent="I_nAO9j3K_pSMa1pQxTB-1" vertex="1"><mxGeometry y="56" width="160" height="30" as="geometry"/></mxCell><mxCell id="I_nAO9j3K_pSMa1pQxTB-4" value="value: int" style="text;strokeColor=none;fillColor=none;spacingLeft=4;spacingRight=4;overflow=hidden;rotatable=0;points=[[0,0.5],[1,0.5]];portConstraint=eastwest;fontSize=12;" parent="I_nAO9j3K_pSMa1pQxTB-1" vertex="1"><mxGeometry y="86" width="160" height="30" as="geometry"/></mxCell><mxCell id="I_nAO9j3K_pSMa1pQxTB-12" style="edgeStyle=none;html=1;endArrow=none;endFill=0;entryX=0.565;entryY=0.993;entryDx=0;entryDy=0;entryPerimeter=0;" parent="nWNUjF1E9qa1LFOPbgsn-1" source="I_nAO9j3K_pSMa1pQxTB-11" target="I_nAO9j3K_pSMa1pQxTB-4" edge="1"><mxGeometry relative="1" as="geometry"/></mxCell><mxCell id="I_nAO9j3K_pSMa1pQxTB-13" style="edgeStyle=none;html=1;entryX=0.5;entryY=0;entryDx=0;entryDy=0;endArrow=none;endFill=0;" parent="nWNUjF1E9qa1LFOPbgsn-1" source="I_nAO9j3K_pSMa1pQxTB-11" target="nWNUjF1E9qa1LFOPbgsn-42" edge="1"><mxGeometry relative="1" as="geometry"/></mxCell><mxCell id="I_nAO9j3K_pSMa1pQxTB-11" value="S_macht_R" style="shape=rhombus;perimeter=rhombusPerimeter;whiteSpace=wrap;html=1;align=center;" parent="nWNUjF1E9qa1LFOPbgsn-1" vertex="1"><mxGeometry x="57.5" y="254" width="125" height="50" as="geometry"/></mxCell><mxCell id="b_fLqj3lkS3d0FPj1qh8-0" value="1,1" style="text;html=1;align=center;verticalAlign=middle;resizable=0;points=[];autosize=1;strokeColor=none;fillColor=none;" parent="nWNUjF1E9qa1LFOPbgsn-1" vertex="1"><mxGeometry x="120" y="126" width="30" height="20" as="geometry"/></mxCell><mxCell id="b_fLqj3lkS3d0FPj1qh8-1" value="0,N" style="text;html=1;align=center;verticalAlign=middle;resizable=0;points=[];autosize=1;strokeColor=none;fillColor=none;" parent="nWNUjF1E9qa1LFOPbgsn-1" vertex="1"><mxGeometry x="120" y="367" width="30" height="20" as="geometry"/></mxCell><mxCell id="b_fLqj3lkS3d0FPj1qh8-19" style="edgeStyle=orthogonalEdgeStyle;rounded=0;orthogonalLoop=1;jettySize=auto;html=1;entryX=1;entryY=0.5;entryDx=0;entryDy=0;endArrow=none;endFill=0;" parent="nWNUjF1E9qa1LFOPbgsn-1" source="b_fLqj3lkS3d0FPj1qh8-18" target="VeuRT2V_BpshuTKpWbaz-19" edge="1"><mxGeometry relative="1" as="geometry"/></mxCell><mxCell id="b_fLqj3lkS3d0FPj1qh8-18" value="c_verfasst_R" style="shape=rhombus;perimeter=rhombusPerimeter;whiteSpace=wrap;html=1;align=center;fontSize=12;" parent="nWNUjF1E9qa1LFOPbgsn-1" vertex="1"><mxGeometry x="1040" y="407" width="200" height="66" as="geometry"/></mxCell><mxCell id="b_fLqj3lkS3d0FPj1qh8-20" value="1,1" style="text;html=1;align=center;verticalAlign=middle;resizable=0;points=[];autosize=1;strokeColor=none;fillColor=none;" parent="nWNUjF1E9qa1LFOPbgsn-1" vertex="1"><mxGeometry x="190" y="66" width="30" height="20" as="geometry"/></mxCell><mxCell id="b_fLqj3lkS3d0FPj1qh8-21" value="0,N" style="text;html=1;align=center;verticalAlign=middle;resizable=0;points=[];autosize=1;strokeColor=none;fillColor=none;" parent="nWNUjF1E9qa1LFOPbgsn-1" vertex="1"><mxGeometry x="810" y="421.5" width="30" height="20" as="geometry"/></mxCell><mxCell id="VeuRT2V_BpshuTKpWbaz-10" value="1,1" style="text;html=1;align=center;verticalAlign=middle;resizable=0;points=[];autosize=1;strokeColor=none;fillColor=none;" parent="nWNUjF1E9qa1LFOPbgsn-1" vertex="1"><mxGeometry x="50" y="726" width="160" height="20" as="geometry"/></mxCell><mxCell id="tBWTlAhO-K5KG-LtTAEM-0" value="" style="triangle;whiteSpace=wrap;html=1;direction=south;" parent="nWNUjF1E9qa1LFOPbgsn-1" vertex="1"><mxGeometry x="390" y="348.5" width="50" height="38.5" as="geometry"/></mxCell><mxCell id="tBWTlAhO-K5KG-LtTAEM-1" style="edgeStyle=orthogonalEdgeStyle;rounded=0;orthogonalLoop=1;jettySize=auto;html=1;endArrow=none;endFill=0;exitX=0.5;exitY=1;exitDx=0;exitDy=0;entryX=0.938;entryY=-0.267;entryDx=0;entryDy=0;entryPerimeter=0;" parent="nWNUjF1E9qa1LFOPbgsn-1" edge="1"><mxGeometry relative="1" as="geometry"><Array as="points"><mxPoint x="413.92" y="387.25"/><mxPoint x="413.92" y="438.25"/><mxPoint x="199.92" y="438.25"/></Array><mxPoint x="412.42" y="387" as="sourcePoint"/><mxPoint x="199.99999999999991" y="429.24" as="targetPoint"/></mxGeometry></mxCell><mxCell id="tBWTlAhO-K5KG-LtTAEM-2" style="edgeStyle=orthogonalEdgeStyle;rounded=0;orthogonalLoop=1;jettySize=auto;html=1;entryX=0.425;entryY=-0.05;entryDx=0;entryDy=0;endArrow=none;endFill=0;entryPerimeter=0;exitX=0.45;exitY=1;exitDx=0;exitDy=0;exitPerimeter=0;" parent="nWNUjF1E9qa1LFOPbgsn-1" source="nWNUjF1E9qa1LFOPbgsn-12" edge="1"><mxGeometry relative="1" as="geometry"><Array as="points"/><mxPoint x="412" y="330" as="sourcePoint"/><mxPoint x="412" y="344" as="targetPoint"/></mxGeometry></mxCell></root></mxGraphModel></diagram></mxfile>